<?xml version="1.0" encoding="UTF-8" standalone="no"?>
<svg
   xmlns:dc="http://purl.org/dc/elements/1.1/"
   xmlns:cc="http://creativecommons.org/ns#"
   xmlns:rdf="http://www.w3.org/1999/02/22-rdf-syntax-ns#"
   xmlns:svg="http://www.w3.org/2000/svg"
   xmlns="http://www.w3.org/2000/svg"
   xmlns:sodipodi="http://sodipodi.sourceforge.net/DTD/sodipodi-0.dtd"
   xmlns:inkscape="http://www.inkscape.org/namespaces/inkscape"
   version="1.1"
   width="1239.0597"
   height="148.67537"
   viewBox="0 0 1239.0597 148.67537"
   xml:space="preserve"
   id="svg36"
   sodipodi:docname="FullColor_1280x1024.svg"
   inkscape:version="0.92.4 5da689c313, 2019-01-14"><metadata
   id="metadata40"><rdf:RDF><cc:Work
       rdf:about=""><dc:format>image/svg+xml</dc:format><dc:type
         rdf:resource="http://purl.org/dc/dcmitype/StillImage" /></cc:Work></rdf:RDF></metadata><sodipodi:namedview
   pagecolor="#ffffff"
   bordercolor="#666666"
   borderopacity="1"
   objecttolerance="10"
   gridtolerance="10"
   guidetolerance="10"
   inkscape:pageopacity="0"
   inkscape:pageshadow="2"
   inkscape:window-width="1920"
   inkscape:window-height="1018"
   id="namedview38"
   showgrid="false"
   showguides="false"
   inkscape:zoom="0.23046875"
   inkscape:cx="706.43184"
   inkscape:cy="419.93222"
   inkscape:window-x="0"
   inkscape:window-y="32"
   inkscape:window-maximized="1"
   inkscape:current-layer="svg36" />
<desc
   id="desc2">Created with Fabric.js 3.1.0</desc>
<defs
   id="defs4">
</defs>


<g
   transform="matrix(1.9654511,0,0,1.9654511,621.86764,39.446598)"
   id="text-logo-path">
<path
   style="opacity:1;fill:#f79320;fill-rule:nonzero;stroke:none;stroke-width:0;stroke-linecap:butt;stroke-linejoin:miter;stroke-miterlimit:4;stroke-dasharray:none;stroke-dashoffset:0;paint-order:stroke"
   transform="translate(-207.095,19.37)"
   d="M 23.43,0 H 4.34 v -38.77 h 16.81 q 4.09,0 7.02,0.78 2.92,0.78 4.57,2.24 1.66,1.46 2.41,3.34 0.75,1.88 0.75,4.3 v 0 q 0,1.39 -0.43,2.73 -0.43,1.33 -1.08,2.27 -0.66,0.93 -1.19,1.53 -0.53,0.59 -0.94,0.9 v 0 q 2.81,1.42 4.31,3.84 1.5,2.42 1.5,5.54 v 0 q 0,2.45 -0.82,4.44 -0.82,1.99 -2.5,3.56 -1.69,1.57 -4.57,2.44 Q 27.3,0 23.43,0 Z m -9.74,-15.56 v 7.52 h 8.66 q 5.65,0 5.65,-3.76 v 0 q 0,-2.06 -1.38,-2.91 -1.38,-0.85 -4.27,-0.85 v 0 z m 0,-15.22 v 8.1 h 8.02 q 2.98,0 4.15,-0.96 1.16,-0.96 1.16,-3.27 v 0 q 0,-3.87 -5.31,-3.87 v 0 z M 53.97,0 h -9.36 v -38.77 h 9.36 z M 74.06,-30.09 H 60.34 v -8.68 h 36.93 v 8.68 H 83.52 V 0 h -9.46 z m 25.41,10.41 v 0 q 0,-4.01 1.59,-7.62 1.58,-3.62 4.34,-6.29 2.76,-2.68 6.68,-4.26 3.92,-1.59 8.38,-1.59 v 0 q 6.06,0 10.81,2.6 4.75,2.61 7.42,7.09 v 0 l -7.94,4.62 q -1.41,-2.73 -4.06,-4.3 -2.64,-1.57 -6.23,-1.57 v 0 q -5.04,0 -8.28,3.24 -3.25,3.24 -3.25,8.08 v 0 q 0,3.06 1.45,5.71 1.45,2.64 4.11,4.26 2.66,1.61 5.97,1.61 v 0 q 3.45,0 6.08,-1.59 2.63,-1.58 4.1,-4.28 v 0 l 7.94,4.56 q -2.73,4.57 -7.46,7.34 -4.73,2.77 -10.66,2.77 v 0 q -4.48,0 -8.39,-1.59 -3.91,-1.59 -6.67,-4.3 -2.76,-2.71 -4.34,-6.47 -1.59,-3.76 -1.59,-8.02 z m 41.72,0.31 v 0 q 0,-4.06 1.57,-7.77 1.58,-3.7 4.25,-6.4 2.67,-2.7 6.37,-4.3 3.7,-1.6 7.8,-1.6 v 0 q 4.03,0 7.75,1.6 3.71,1.6 6.38,4.3 2.68,2.7 4.28,6.42 1.6,3.71 1.6,7.75 v 0 q 0,4.06 -1.59,7.78 -1.59,3.71 -4.27,6.4 -2.69,2.69 -6.4,4.29 -3.72,1.6 -7.75,1.6 v 0 q -5.46,0 -10.07,-2.7 -4.6,-2.7 -7.26,-7.31 -2.66,-4.61 -2.66,-10.06 z m 8.55,0 v 0 q 0,4.73 3.35,8.06 3.35,3.32 8.09,3.32 v 0 q 4.67,0 8.01,-3.32 3.34,-3.33 3.34,-8.06 v 0 q 0,-4.68 -3.34,-8.02 -3.34,-3.34 -8.01,-3.34 v 0 q -4.74,0 -8.09,3.33 -3.35,3.33 -3.35,8.03 z M 196.69,0 h -9.35 v -38.77 h 9.35 z m 17.48,0 h -9.41 v -38.77 h 9.41 l 19.62,23.66 v -23.66 h 9.41 V 0 h -9.41 l -19.62,-23.71 z m 59.47,0 h -9.4 v -38.77 h 9.4 l 19.63,23.66 v -23.66 h 9.4 V 0 h -9.4 l -19.63,-23.71 z m 66.86,0 h -29.7 v -38.77 h 29.7 v 8.68 h -20.35 v 6.66 h 16.98 v 8.09 h -16.98 v 6.68 h 20.35 z m 18.28,0 -12.88,-38.77 h 9.96 l 8.04,25.16 8.83,-25.16 h 10.21 l 7.88,25.02 8.99,-25.02 h 10.04 L 395.3,0 h -9.58 L 377.6,-25.24 368.47,0 Z"
   id="path30"
   inkscape:connector-curvature="0" />
</g>
<g
   transform="matrix(1.9654511,0,0,1.9654511,619.52983,136.91214)"
   id="tagline-599fb494-f904-498e-9003-54b24fdc481b-logo-path">
<path
   style="opacity:1;fill:#69bd45;fill-rule:nonzero;stroke:none;stroke-width:0;stroke-linecap:butt;stroke-linejoin:miter;stroke-miterlimit:4;stroke-dasharray:none;stroke-dashoffset:0;paint-order:stroke"
   transform="translate(-315.82,5.775)"
   d="m 4.71,-8.97 h -4.1 v -2.59 h 11.02 v 2.59 H 7.53 V 0 H 4.71 Z m 7.39,3.19 v 0 q 0,-1.21 0.47,-2.31 0.47,-1.11 1.27,-1.91 0.79,-0.81 1.9,-1.28 1.1,-0.48 2.32,-0.48 v 0 q 1.21,0 2.31,0.48 1.11,0.47 1.91,1.28 0.8,0.8 1.27,1.91 0.48,1.11 0.48,2.31 v 0 q 0,1.21 -0.47,2.32 -0.48,1.11 -1.28,1.91 -0.8,0.8 -1.91,1.28 -1.1,0.48 -2.31,0.48 v 0 q -1.62,0 -3,-0.81 -1.37,-0.8 -2.16,-2.18 -0.8,-1.37 -0.8,-3 z m 2.55,0 v 0 q 0,1.41 1,2.41 1,0.99 2.41,0.99 v 0 q 1.4,0 2.39,-0.99 1,-1 1,-2.41 v 0 q 0,-1.39 -1,-2.39 -0.99,-0.99 -2.39,-0.99 v 0 q -1.41,0 -2.41,0.99 -1,0.99 -1,2.39 z M 32.68,0 h -2.79 v -11.56 h 2.79 z m 5.37,0 h -2.79 v -11.56 h 3.09 l 4.03,8.48 4.01,-8.48 h 3.12 V 0 H 46.7 V -5.9 L 43.93,0 h -3.12 l -2.76,-5.9 z m 16.74,0 h -2.81 v -11.56 h 5.34 q 1.07,0 1.92,0.37 0.86,0.38 1.38,1.02 0.53,0.63 0.81,1.42 0.28,0.78 0.28,1.64 v 0 q 0,0.69 -0.17,1.35 -0.17,0.65 -0.53,1.22 -0.36,0.57 -0.88,1 -0.51,0.43 -1.24,0.68 -0.73,0.25 -1.59,0.25 v 0 h -2.51 z m 0,-8.97 v 3.78 H 57 q 0.86,0 1.38,-0.5 0.51,-0.49 0.51,-1.42 v 0 q 0,-0.9 -0.51,-1.37 Q 57.87,-8.96 57,-8.97 v 0 z M 66.64,0 h -2.79 v -11.56 h 5.59 q 1.76,0 2.94,1.23 1.17,1.23 1.17,3.11 v 0 q 0,1.24 -0.55,2.23 -0.56,1 -1.51,1.5 v 0 L 73.88,0 h -3.47 l -1.74,-2.87 h -2.03 z m 0,-8.97 v 3.52 h 2.39 q 0.71,0 1.22,-0.52 0.5,-0.52 0.5,-1.25 v 0 q 0,-0.72 -0.5,-1.23 -0.5,-0.52 -1.2,-0.52 v 0 z m 8.13,3.19 v 0 q 0,-1.21 0.47,-2.31 0.47,-1.11 1.27,-1.91 0.8,-0.81 1.9,-1.28 1.1,-0.48 2.32,-0.48 v 0 q 1.21,0 2.32,0.48 1.1,0.47 1.9,1.28 0.8,0.8 1.27,1.91 0.48,1.11 0.48,2.31 v 0 q 0,1.21 -0.47,2.32 -0.47,1.11 -1.28,1.91 -0.8,0.8 -1.9,1.28 -1.11,0.48 -2.32,0.48 v 0 q -1.62,0 -3,-0.81 -1.37,-0.8 -2.16,-2.18 -0.8,-1.37 -0.8,-3 z m 2.55,0 v 0 q 0,1.41 1,2.41 1,0.99 2.41,0.99 v 0 q 1.4,0 2.39,-0.99 1,-1 1,-2.41 v 0 q 0,-1.39 -1,-2.39 -0.99,-0.99 -2.39,-0.99 v 0 q -1.41,0 -2.41,0.99 -1,0.99 -1,2.39 z M 92.94,0 87.82,-11.56 h 3.07 l 3.59,8.26 3.58,-8.26 h 3.07 L 96,0 Z m 18.9,0 h -8.86 v -11.56 h 8.86 v 2.59 h -6.07 v 1.98 h 5.06 v 2.42 h -5.06 v 1.99 h 6.07 z m 9.69,-8.97 h -4.09 v -2.59 h 11.01 v 2.59 h -4.1 V 0 h -2.82 z M 133.14,0 h -2.78 v -11.56 h 2.78 v 4.49 h 5.08 v -4.49 h 2.81 V 0 h -2.81 v -4.49 h -5.08 z m 19.33,0 h -8.86 v -11.56 h 8.86 v 2.59 h -6.07 v 1.98 h 5.06 v 2.42 h -5.06 v 1.99 h 6.07 z m 9.48,0 -3.85,-11.56 h 2.98 l 2.4,7.5 2.63,-7.5 h 3.04 l 2.35,7.46 2.68,-7.46 h 3 L 172.84,0 h -2.86 L 167.56,-7.53 164.84,0 Z m 15.18,-5.78 v 0 q 0,-1.21 0.47,-2.31 0.47,-1.11 1.27,-1.91 0.79,-0.81 1.9,-1.28 1.1,-0.48 2.32,-0.48 v 0 q 1.2,0 2.31,0.48 1.11,0.47 1.91,1.28 0.79,0.8 1.27,1.91 0.48,1.11 0.48,2.31 v 0 q 0,1.21 -0.47,2.32 -0.48,1.11 -1.28,1.91 -0.8,0.8 -1.91,1.28 -1.11,0.48 -2.31,0.48 v 0 q -1.63,0 -3,-0.81 -1.37,-0.8 -2.17,-2.18 -0.79,-1.37 -0.79,-3 z m 2.55,0 v 0 q 0,1.41 1,2.41 1,0.99 2.41,0.99 v 0 q 1.39,0 2.39,-0.99 1,-1 1,-2.41 v 0 q 0,-1.39 -1,-2.39 -1,-0.99 -2.39,-0.99 v 0 q -1.41,0 -2.41,0.99 -1,0.99 -1,2.39 z m 14,5.78 h -2.79 v -11.56 h 5.59 q 1.77,0 2.94,1.23 1.18,1.23 1.18,3.11 v 0 q 0,1.24 -0.56,2.23 -0.56,1 -1.5,1.5 v 0 L 200.92,0 h -3.47 l -1.73,-2.87 h -2.04 z m 0,-8.97 v 3.52 h 2.39 q 0.72,0 1.22,-0.52 0.5,-0.52 0.5,-1.25 v 0 q 0,-0.72 -0.5,-1.23 -0.5,-0.52 -1.2,-0.52 v 0 z M 211.76,0 h -8.86 v -11.56 h 2.79 v 8.98 h 6.07 z m 7.1,0 h -5.11 v -11.55 l 5.11,-0.01 q 0.02,0 0.05,0 v 0 q 1.37,-0.01 2.51,0.42 v 0 q 1.15,0.43 1.92,1.2 0.77,0.78 1.2,1.84 0.42,1.06 0.42,2.31 v 0 q 0,1.66 -0.77,2.98 -0.77,1.32 -2.16,2.07 Q 220.63,0 218.86,0 Z m -2.33,-8.97 v 6.39 h 2.33 q 1.46,0 2.37,-0.89 0.91,-0.88 0.91,-2.32 v 0 q 0,-1.53 -0.89,-2.36 -0.88,-0.82 -2.39,-0.82 v 0 z M 234.14,0 230.3,-11.56 h 2.97 l 2.4,7.5 2.63,-7.5 h 3.05 l 2.34,7.46 2.69,-7.46 h 2.99 L 245.03,0 h -2.85 L 239.75,-7.53 237.03,0 Z m 19.94,0 h -2.79 v -11.56 h 2.79 z m 5.99,-8.97 h -4.09 v -2.59 h 11.01 v 2.59 h -4.1 V 0 h -2.82 z M 271.68,0 h -2.78 v -11.56 h 2.78 v 4.49 h 5.08 v -4.49 h 2.81 V 0 h -2.81 v -4.49 h -5.08 z m 17.29,0 h -2.79 v -11.56 h 2.79 z m 5.37,0 h -2.79 v -11.56 h 3.09 l 4.03,8.48 4.01,-8.48 h 3.11 V 0 h -2.8 V -5.9 L 300.21,0 h -3.11 l -2.76,-5.9 z m 16.81,0 h -2.79 v -11.56 h 3.09 l 4.03,8.48 4.01,-8.48 h 3.11 V 0 h -2.8 V -5.9 L 317.02,0 h -3.11 l -2.76,-5.9 z m 22.87,0 h -8.85 v -11.56 h 8.85 v 2.59 h -6.06 v 1.98 h 5.06 v 2.42 h -5.06 v 1.99 h 6.06 z m 7.37,0 h -5.11 v -11.55 l 5.11,-0.01 q 0.03,0 0.05,0 v 0 q 1.37,-0.01 2.51,0.42 v 0 q 1.15,0.43 1.93,1.2 0.77,0.78 1.19,1.84 0.43,1.06 0.43,2.31 v 0 q 0,1.66 -0.77,2.98 -0.77,1.32 -2.16,2.07 Q 343.17,0 341.39,0 Z m -2.32,-8.97 v 6.39 h 2.32 q 1.47,0 2.37,-0.89 0.91,-0.88 0.91,-2.32 v 0 q 0,-1.53 -0.88,-2.36 -0.88,-0.82 -2.4,-0.82 v 0 z M 352.24,0 h -2.79 v -11.56 h 2.79 z m 4.86,0 h -2.96 l 4.95,-11.56 h 3.11 L 367.16,0 h -2.97 l -0.75,-1.8 h -5.58 z m 3.57,-8.4 -1.84,4.32 h 3.64 z m 9.59,-0.57 h -4.1 v -2.59 h 11.02 v 2.59 h -4.1 V 0 h -2.82 z M 387.94,0 h -8.86 v -11.56 h 8.86 v 2.59 h -6.07 v 1.98 h 5.06 v 2.42 h -5.06 v 1.99 h 6.07 z m 8.56,0 h -2.96 l 4.95,-11.56 h 3.1 L 406.56,0 h -2.98 l -0.74,-1.8 h -5.58 z m 3.56,-8.4 -1.83,4.32 h 3.64 z M 411.08,0 h -2.81 v -11.56 h 2.81 l 5.85,7.05 v -7.05 h 2.81 V 0 h -2.81 l -5.85,-7.07 z m 16.19,0 h -5.11 v -11.55 l 5.11,-0.01 q 0.03,0 0.05,0 v 0 q 1.37,-0.01 2.51,0.42 v 0 q 1.15,0.43 1.93,1.2 0.77,0.78 1.19,1.84 0.43,1.06 0.43,2.31 v 0 q 0,1.66 -0.77,2.98 -0.77,1.32 -2.16,2.07 Q 429.05,0 427.27,0 Z m -2.32,-8.97 v 6.39 h 2.32 q 1.47,0 2.37,-0.89 0.91,-0.88 0.91,-2.32 v 0 q 0,-1.53 -0.88,-2.36 -0.88,-0.82 -2.4,-0.82 v 0 z M 442.15,0 h -2.79 v -11.56 h 8.86 v 2.59 h -6.07 v 2.64 h 5.06 v 2.57 h -5.06 z m 11.03,0 h -2.79 v -11.56 h 5.59 q 1.77,0 2.94,1.23 1.18,1.23 1.18,3.11 v 0 q 0,1.24 -0.56,2.23 -0.56,1 -1.5,1.5 v 0 L 460.42,0 h -3.47 l -1.74,-2.87 h -2.03 z m 0,-8.97 v 3.52 h 2.39 q 0.72,0 1.22,-0.52 0.5,-0.52 0.5,-1.25 v 0 q 0,-0.72 -0.5,-1.23 -0.5,-0.52 -1.2,-0.52 v 0 z M 471.26,0 h -8.86 v -11.56 h 8.86 v 2.59 h -6.07 v 1.98 h 5.07 v 2.42 h -5.07 v 1.99 h 6.07 z m 11.12,0 h -8.86 v -11.56 h 8.86 v 2.59 h -6.07 v 1.98 h 5.06 v 2.42 h -5.06 v 1.99 h 6.07 z m 9.69,-8.97 h -4.09 v -2.59 h 11.01 v 2.59 h -4.1 V 0 h -2.82 z M 503.68,0 h -2.79 v -11.56 h 5.59 q 1.77,0 2.94,1.23 1.18,1.23 1.18,3.11 v 0 q 0,1.24 -0.56,2.23 -0.55,1 -1.5,1.5 v 0 L 510.92,0 h -3.47 l -1.73,-2.87 h -2.04 z m 0,-8.97 v 3.52 h 2.39 q 0.72,0 1.22,-0.52 0.5,-0.52 0.5,-1.25 v 0 q 0,-0.72 -0.5,-1.23 -0.49,-0.52 -1.2,-0.52 v 0 z M 515.18,0 h -2.96 l 4.95,-11.56 h 3.11 L 525.24,0 h -2.97 l -0.75,-1.8 h -5.58 z m 3.57,-8.4 -1.84,4.32 h 3.64 z M 529.76,0 h -2.8 v -11.56 h 2.8 l 5.86,7.05 v -7.05 h 2.8 V 0 h -2.8 l -5.86,-7.07 z m 10.55,-4.04 v 0 h 2.78 q 0.01,0.07 0.03,0.2 0.03,0.12 0.2,0.44 0.16,0.31 0.4,0.55 0.25,0.24 0.74,0.44 0.5,0.2 1.14,0.2 v 0 q 0.87,0 1.28,-0.3 0.42,-0.3 0.42,-0.72 v 0 q 0,-0.21 -0.12,-0.39 -0.12,-0.17 -0.28,-0.29 -0.16,-0.12 -0.47,-0.23 -0.3,-0.11 -0.54,-0.17 -0.23,-0.06 -0.63,-0.16 v 0 q -1.65,-0.39 -2.43,-0.72 v 0 q -2.34,-0.97 -2.34,-2.9 v 0 q 0,-1.04 0.63,-1.88 0.62,-0.85 1.7,-1.32 1.07,-0.47 2.38,-0.47 v 0 q 1.07,0 1.98,0.35 0.9,0.35 1.46,0.91 0.56,0.56 0.86,1.23 0.3,0.68 0.3,1.37 v 0 h -2.77 q 0,-0.49 -0.52,-0.93 -0.52,-0.43 -1.35,-0.43 v 0 q -0.69,0 -1.27,0.28 -0.58,0.29 -0.58,0.75 v 0 q 0,0.39 0.5,0.62 0.51,0.23 1.89,0.59 v 0 q 1.58,0.4 2.28,0.72 v 0 q 1.89,0.85 2.09,2.49 v 0 q 0.02,0.21 0.02,0.42 v 0 q 0,1.64 -1.29,2.62 -1.29,0.98 -3.35,0.98 v 0 q -1.04,0 -1.92,-0.27 -0.87,-0.27 -1.46,-0.71 -0.58,-0.43 -0.98,-1 -0.41,-0.56 -0.59,-1.14 -0.19,-0.58 -0.19,-1.13 z M 553.64,0 h -2.96 l 4.95,-11.56 h 3.1 L 563.7,0 h -2.97 l -0.75,-1.8 h -5.58 z m 3.57,-8.4 -1.84,4.32 h 3.64 z m 6.71,2.53 v 0 q 0,-1.19 0.48,-2.27 0.47,-1.08 1.29,-1.88 0.82,-0.8 1.99,-1.27 1.17,-0.47 2.5,-0.47 v 0 q 1.81,0 3.23,0.77 1.41,0.78 2.21,2.12 v 0 l -2.37,1.37 q -0.42,-0.81 -1.21,-1.28 -0.79,-0.47 -1.86,-0.47 v 0 q -1.5,0 -2.47,0.97 -0.97,0.97 -0.97,2.41 v 0 q 0,0.91 0.44,1.7 0.43,0.79 1.22,1.27 0.79,0.48 1.78,0.48 v 0 q 1.03,0 1.81,-0.47 0.79,-0.47 1.23,-1.28 v 0 l 2.36,1.36 q -0.81,1.37 -2.22,2.19 -1.41,0.83 -3.18,0.83 v 0 q -1.34,0 -2.5,-0.48 -1.17,-0.47 -1.99,-1.28 -0.82,-0.81 -1.29,-1.93 -0.48,-1.12 -0.48,-2.39 z m 16.94,-3.1 h -4.09 v -2.59 h 11.02 v 2.59 h -4.1 V 0 h -2.83 z M 592.48,0 h -2.79 v -11.56 h 2.79 z m 1.83,-5.78 v 0 q 0,-1.21 0.47,-2.31 0.47,-1.11 1.27,-1.91 0.79,-0.81 1.9,-1.28 1.1,-0.48 2.32,-0.48 v 0 q 1.2,0 2.31,0.48 1.11,0.47 1.91,1.28 0.79,0.8 1.27,1.91 0.48,1.11 0.48,2.31 v 0 q 0,1.21 -0.47,2.32 -0.48,1.11 -1.28,1.91 -0.8,0.8 -1.91,1.28 -1.11,0.48 -2.31,0.48 v 0 q -1.63,0 -3,-0.81 -1.37,-0.8 -2.17,-2.18 -0.79,-1.37 -0.79,-3 z m 2.55,0 v 0 q 0,1.41 1,2.41 1,0.99 2.41,0.99 v 0 q 1.4,0 2.39,-0.99 1,-1 1,-2.41 v 0 q 0,-1.39 -1,-2.39 -0.99,-0.99 -2.39,-0.99 v 0 q -1.41,0 -2.41,0.99 -1,0.99 -1,2.39 z M 610.71,0 h -2.81 v -11.56 h 2.81 l 5.85,7.05 v -7.05 h 2.8 V 0 h -2.8 l -5.85,-7.07 z m 10.55,-4.04 v 0 h 2.77 q 0.01,0.07 0.04,0.2 0.02,0.12 0.19,0.44 0.16,0.31 0.4,0.55 0.25,0.24 0.75,0.44 0.49,0.2 1.13,0.2 v 0 q 0.87,0 1.29,-0.3 0.41,-0.3 0.41,-0.72 v 0 q 0,-0.21 -0.12,-0.39 -0.12,-0.17 -0.28,-0.29 -0.16,-0.12 -0.47,-0.23 -0.3,-0.11 -0.54,-0.17 -0.23,-0.06 -0.63,-0.16 v 0 q -1.65,-0.39 -2.43,-0.72 v 0 q -2.34,-0.97 -2.34,-2.9 v 0 q 0,-1.04 0.63,-1.88 0.62,-0.85 1.7,-1.32 1.07,-0.47 2.38,-0.47 v 0 q 1.08,0 1.98,0.35 0.9,0.35 1.46,0.91 0.56,0.56 0.86,1.23 0.3,0.68 0.3,1.37 v 0 h -2.77 q 0,-0.49 -0.52,-0.93 -0.52,-0.43 -1.35,-0.43 v 0 q -0.69,0 -1.27,0.28 -0.58,0.29 -0.58,0.75 v 0 q 0,0.39 0.5,0.62 0.51,0.23 1.89,0.59 v 0 q 1.58,0.4 2.28,0.72 v 0 q 1.89,0.85 2.09,2.49 v 0 q 0.02,0.21 0.02,0.42 v 0 q 0,1.64 -1.29,2.62 -1.29,0.98 -3.35,0.98 v 0 q -1.04,0 -1.92,-0.27 -0.87,-0.27 -1.45,-0.71 -0.59,-0.43 -0.99,-1 -0.41,-0.56 -0.59,-1.14 -0.18,-0.58 -0.18,-1.13 z"
   id="path33"
   inkscape:connector-curvature="0" />
</g>
</svg>